<svg xmlns="http://www.w3.org/2000/svg">
    <symbol id="prev" viewBox="0 0 12 12">
        <path d="M2 5.397V.5a.5.5 0 1 0-1 0v11a.5.5 0 1 0 1 0V6.597L11 12V0L2 5.397z"></path>
    </symbol>
    <symbol id="play" viewBox="0 0 12 12">
        <path fill-rule="evenodd" stroke-linecap="round" stroke-linejoin="round" stroke-width="1" d="M2.5.5v11l9-5.5z"></path>
    </symbol>
    <symbol id="next" viewBox="0 0 12 12">
        <path d="M11 .5v11c0 .276-.232.5-.5.5a.503.503 0 0 1-.5-.5V7.08L1.562 11.95A.375.375 0 0 1 1 11.624V.376c0-.29.312-.47.562-.325L10 4.919V.5c0-.276.232-.5.5-.5.276 0 .5.229.5.5z"></path>
    </symbol>
    <symbol id="stop" viewBox="0 0 12 12">
        <path d="M2.495 0h2.01C4.778 0 5 .224 5 .5v11a.5.5 0 0 1-.495.5h-2.01A.498.498 0 0 1 2 11.5V.5a.5.5 0 0 1 .495-.5zM7 .5a.5.5 0 0 1 .495-.5h2.01c.273 0 .495.224.495.5v11a.5.5 0 0 1-.495.5h-2.01A.498.498 0 0 1 7 11.5V.5z"></path>
    </symbol>
    <symbol id="discover" viewBox="0 0 25 25">
        <path fill-rule="evenodd" clip-rule="evenodd" d="M14.3794 23.0899C13.939 23.0907 13.5165 22.9153 13.2061 22.6028L12.0328 21.4295C11.7169 21.159 11.5793 20.7343 11.6766 20.3299C11.7739 19.9256 12.0896 19.6098 12.4939 19.5126C12.8983 19.4153 13.323 19.5529 13.5935 19.8688L14.3794 20.6547L14.7668 20.2673C14.8503 20.1832 14.9047 20.0746 14.9218 19.9573L15.5749 15.3969C15.6442 14.9227 15.8656 14.4838 16.2058 14.1462L18.962 11.39C20.837 9.52771 21.8892 6.99282 21.8842 4.35015V2.21384H19.7479C17.1052 2.20882 14.5703 3.26104 12.708 5.13604L9.95185 7.8922C9.61421 8.23237 9.1753 8.45377 8.70106 8.52313L4.12959 9.1762C4.01236 9.19335 3.90372 9.24767 3.81966 9.33117L3.43225 9.71858L4.21815 10.5045C4.53403 10.775 4.67162 11.1997 4.57436 11.6041C4.47709 12.0084 4.16138 12.3241 3.75704 12.4214C3.35269 12.5187 2.92794 12.3811 2.65743 12.0652L1.48412 10.8919C0.836689 10.2437 0.836689 9.19351 1.48412 8.54527L2.27001 7.75938C2.69219 7.33637 3.23951 7.06077 3.83073 6.97348L8.4022 6.32042L11.1584 3.56425C13.4377 1.27382 16.5387 -0.00959636 19.77 5.40319e-05H22.9911C23.6024 5.40319e-05 24.098 0.495627 24.098 1.10695V4.35015C24.1076 7.58148 22.8242 10.6824 20.5338 12.9618L17.7776 15.7179L17.1245 20.2894C17.0372 20.8806 16.7616 21.428 16.3386 21.8501L15.5527 22.636C15.237 22.9364 14.8151 23.0995 14.3794 23.0899ZM8.89951 19.8688L10.4602 18.3081C10.8363 17.8689 10.811 17.2143 10.4022 16.8054C9.99334 16.3966 9.33868 16.3713 8.89951 16.7474L7.33879 18.3081C7.02291 18.5786 6.88532 19.0034 6.98258 19.4077C7.07985 19.8121 7.39555 20.1278 7.7999 20.225C8.20425 20.3223 8.629 20.1847 8.89951 19.8688ZM4.20742 18.308L7.33993 15.1755C7.71603 14.7364 7.69074 14.0817 7.28189 13.6728C6.87304 13.264 6.21838 13.2387 5.77921 13.6148L2.6467 16.7473C2.33082 17.0178 2.19323 17.4426 2.29049 17.8469C2.38776 18.2513 2.70346 18.567 3.10781 18.6642C3.51216 18.7615 3.93691 18.6239 4.20742 18.308ZM18.2978 10.4824C19.5926 9.18591 19.5926 7.08562 18.2978 5.78915C18.0273 5.47327 17.6025 5.33567 17.1982 5.43294C16.7938 5.5302 16.4781 5.84591 16.3808 6.25026C16.2836 6.65461 16.4212 7.07935 16.7371 7.34987C16.9466 7.55771 17.0645 7.84062 17.0645 8.13576C17.0645 8.4309 16.9466 8.71382 16.7371 8.92166C16.3053 9.35083 15.6081 9.35083 15.1763 8.92166C14.9668 8.71382 14.8489 8.4309 14.8489 8.13576C14.8489 7.84062 14.9668 7.55771 15.1763 7.34987C15.5524 6.9107 15.5272 6.25604 15.1183 5.84719C14.7094 5.43834 14.0548 5.41305 13.6156 5.78915C12.7272 6.61697 12.3615 7.86371 12.662 9.04027C12.9625 10.2168 13.8812 11.1355 15.0577 11.436C16.2343 11.7365 17.481 11.3708 18.3088 10.4824H18.2978Z" fill="white"/>
    </symbol>
    <symbol id="home" viewBox="0 0 25 25">
        <path fill-rule="evenodd" clip-rule="evenodd" d="M18.0003 21H16.0003C14.8958 21 14.0003 20.1046 14.0003 19V12H10.0003V19C10.0003 20.1046 9.10491 21 8.00034 21H6.00034C4.34348 21 3.00034 19.6569 3.00034 18V11C3.00034 10.4477 3.44805 10 4.00034 10C4.55262 10 5.00034 10.4477 5.00034 11V18C5.00034 18.5523 5.44805 19 6.00034 19H8.00034V12C8.00034 10.8955 8.89577 10 10.0003 10H14.0003C15.1049 10 16.0003 10.8955 16.0003 12V19H18.0003C18.5526 19 19.0003 18.5523 19.0003 18V11C19.0003 10.4477 19.4481 10 20.0003 10C20.5526 10 21.0003 10.4477 21.0003 11V18C21.0003 19.6569 19.6572 21 18.0003 21ZM23.8403 8.54002C24.1396 8.07855 24.0101 7.46198 23.5503 7.16002L14.1803 1.08002C12.8571 0.222675 11.1536 0.222675 9.83034 1.08002L0.460336 7.16002C-0.00358331 7.46102 -0.135659 8.0811 0.165336 8.54502C0.466331 9.00894 1.08642 9.14102 1.55034 8.84002L10.9203 2.76002C11.5831 2.32919 12.4375 2.32919 13.1003 2.76002L22.4703 8.84002C22.9318 9.13934 23.5484 9.00977 23.8503 8.55002L23.8403 8.54002Z" fill="#3E2AD1"/>
    </symbol>
    <symbol id="tv" viewBox="0 0 25 25">
        <path opacity="0.4" fill-rule="evenodd" clip-rule="evenodd" d="M24.7424 13.729V3.16824C24.7424 1.41847 23.3577 0 21.6496 0H3.0928C1.3847 0 0 1.41847 0 3.16824V13.729C0 15.4788 1.3847 16.8973 3.0928 16.8973C3.66217 16.8973 4.12374 16.4244 4.12374 15.8412C4.12374 15.2579 3.66217 14.7851 3.0928 14.7851C2.52343 14.7851 2.06187 14.3123 2.06187 13.729V3.16824C2.06187 2.58498 2.52343 2.11216 3.0928 2.11216H21.6496C22.219 2.11216 22.6806 2.58498 22.6806 3.16824V13.729C22.6806 14.3123 22.219 14.7851 21.6496 14.7851C21.0803 14.7851 20.6187 15.2579 20.6187 15.8412C20.6187 16.4244 21.0803 16.8973 21.6496 16.8973C23.3577 16.8973 24.7424 15.4788 24.7424 13.729ZM18.5569 19.0094C18.165 19.0122 17.8054 18.7871 17.6291 18.4286L16.8868 16.8973H7.85579L7.11352 18.4286C6.85028 18.9314 6.24475 19.1291 5.746 18.8751C5.24725 18.6211 5.03565 18.0072 5.26815 17.4887L6.01042 15.9574C6.3586 15.2396 7.07337 14.7855 7.85579 14.7851H16.8868C17.6692 14.7855 18.384 15.2396 18.7322 15.9574L19.4744 17.4887C19.6304 17.8146 19.6119 18.1998 19.4256 18.5086C19.2393 18.8174 18.9112 19.0065 18.5569 19.0094ZM10.51 12H9.04V6.72H7.24V5.48H12.3V6.72H10.51V12ZM16.2069 12H14.4369L12.4669 5.48H14.0269L14.8169 8.52C14.9049 8.84893 14.98 9.16713 15.0552 9.48554C15.1424 9.85441 15.2295 10.2236 15.3369 10.61H15.3769C15.4842 10.2236 15.5714 9.85442 15.6585 9.48555C15.7337 9.16714 15.8089 8.84893 15.8969 8.52L16.6669 5.48H18.1769L16.2069 12Z" fill="#0F1E36" fill-opacity="0.5"/>
    </symbol>
    <symbol id="radio" viewBox="0 0 25 25">
        <path opacity="0.4" fill-rule="evenodd" clip-rule="evenodd" d="M19.877 19.6033H3.47574C1.96604 19.6033 0.742188 18.3496 0.742188 16.803V7.46897C0.742188 5.92245 1.96604 4.66875 3.47574 4.66875H4.12268L11.1935 0.141723C11.6212 -0.131496 12.1842 0.00223234 12.4509 0.440413C12.7176 0.878594 12.5871 1.4553 12.1593 1.72852L5.08853 6.25554C4.79852 6.43966 4.46387 6.53668 4.12268 6.53556H3.47574C2.97251 6.53556 2.56455 6.95346 2.56455 7.46897V16.803C2.56455 17.3185 2.97251 17.7365 3.47574 17.7365H19.877C20.3803 17.7365 20.7882 17.3185 20.7882 16.803V7.46897C20.7882 6.95346 20.3803 6.53556 19.877 6.53556H9.85402C9.35079 6.53556 8.94284 6.11766 8.94284 5.60216C8.94284 5.08665 9.35079 4.66875 9.85402 4.66875H19.877C21.3867 4.66875 22.6106 5.92245 22.6106 7.46897V16.803C22.6106 17.5457 22.3226 18.258 21.81 18.7831C21.2973 19.3082 20.602 19.6033 19.877 19.6033ZM18.9661 12.136C18.9661 10.5895 17.7423 9.33578 16.2326 9.33578C14.7229 9.33578 13.499 10.5895 13.499 12.136C13.499 12.6515 13.907 13.0694 14.4102 13.0694C14.9134 13.0694 15.3214 12.6515 15.3214 12.136C15.3214 11.6205 15.7293 11.2026 16.2326 11.2026C16.7358 11.2026 17.1438 11.6205 17.1438 12.136C17.1438 12.6515 16.7358 13.0694 16.2326 13.0694C15.7293 13.0694 15.3214 13.4873 15.3214 14.0028C15.3214 14.5183 15.7293 14.9362 16.2326 14.9362C17.7423 14.9362 18.9661 13.6825 18.9661 12.136ZM10.7655 10.2692C10.7655 9.75369 10.3575 9.33578 9.85431 9.33578H5.29839C4.79516 9.33578 4.38721 9.75369 4.38721 10.2692C4.38721 10.7847 4.79516 11.2026 5.29839 11.2026H9.85431C10.3575 11.2026 10.7655 10.7847 10.7655 10.2692ZM10.7655 14.0028C10.7655 13.4873 10.3575 13.0694 9.85431 13.0694H5.29839C4.79516 13.0694 4.38721 13.4873 4.38721 14.0028C4.38721 14.5183 4.79516 14.9362 5.29839 14.9362H9.85431C10.3575 14.9362 10.7655 14.5183 10.7655 14.0028Z" fill="#0F1E36" fill-opacity="0.5"/>
    </symbol>
    <symbol id="bell" viewBox="0 0 25 25">
        <path opacity="0.4" fill-rule="evenodd" clip-rule="evenodd" d="M9.64958 25.5847C8.83677 25.5846 8.03829 25.358 7.3344 24.9275C7.03299 24.7605 6.84228 24.4319 6.83767 24.0716C6.83307 23.7114 7.01531 23.3775 7.31235 23.2019C7.60939 23.0263 7.9734 23.0373 8.26047 23.2306C9.03369 23.6998 9.97247 23.7476 10.7846 23.3592C11.5968 22.9709 12.1838 22.1935 12.363 21.2689C12.5338 20.3329 13.3152 19.6626 14.2151 19.6799H16.8359L16.1969 16.9727C16.188 16.8945 16.188 16.8155 16.1969 16.7373V11.117C16.259 7.42985 13.618 4.31988 10.1497 3.99598C8.35631 3.86815 6.59334 4.5347 5.28179 5.83644C3.97024 7.13818 3.22785 8.95825 3.23191 10.862V16.7471C3.24083 16.8253 3.24083 16.9044 3.23191 16.9825L2.59292 19.6897H9.74219C10.2536 19.6897 10.6683 20.1289 10.6683 20.6706C10.6683 21.2123 10.2536 21.6514 9.74219 21.6514H2.59292C2.02368 21.651 1.48626 21.3733 1.13553 20.8984C0.784798 20.4235 0.65972 19.8042 0.796337 19.2189L1.40754 16.6294V10.8718C1.4024 8.42491 2.35637 6.08553 4.04176 4.412C5.72715 2.73848 7.99275 1.88094 10.2978 2.04407C14.7381 2.43521 18.1359 6.3982 18.0768 11.117V16.6098L18.688 19.1993C18.8247 19.7846 18.6996 20.4039 18.3488 20.8788C17.9981 21.3537 17.4607 21.6313 16.8915 21.6318H14.2707C13.8363 23.9602 11.8901 25.6249 9.64958 25.5847Z" fill="#0F1E36" fill-opacity="0.5"/>
        <ellipse cx="16.5" cy="4.58536" rx="3.5" ry="3.58536" fill="#F51E38" stroke="#F5F5F5"/>
    </symbol>
</svg>
